<svg fill="none" height="75" viewBox="0 0 375 75" width="375" preserveAspectRatio="none" xmlns="http://www.w3.org/2000/svg" xmlns:xlink="http://www.w3.org/1999/xlink"><linearGradient id="a" gradientUnits="userSpaceOnUse" x1="187.5" x2="187.5" y1="74.0385" y2=".197145"><stop offset="0" stop-color="#ffe7aa"/><stop offset="1" stop-color="#ffb600"/></linearGradient><linearGradient id="b" gradientUnits="userSpaceOnUse" x1="62.4051" x2="375.646" y1="67.6886" y2="64.5516"><stop offset="0" stop-color="#1a477f"/><stop offset="1" stop-color="#00709a"/></linearGradient><path d="m375 63.4516c-41.609 10.4082-72.021-9.344-95.406-15.5916-47.681-12.7378-66.991 28.6354-101.418 26.063-20.59-1.5374-38.78-55.9848-95.9733-32.2168-40.1464 16.6838-55.0279-34.66286-82.20269632-41.509053l374.99999632.000027z" fill="url(#a)"/><path d="m375 47.9799c-40.693 10.402-70.272 24.4053-93.143 18.1615-46.632-12.7303-59.94-40.2465-93.61-42.8173-20.137-1.5366-39.581 3.9494-69.557.4287-33.285-4.7393-35.3132-14.8104-54.1023-23.6964588l310.4123.0000477z" fill="url(#b)"/></svg>