<svg xmlns="http://www.w3.org/2000/svg" xmlns:xlink="http://www.w3.org/1999/xlink" width="1920" zoomAndPan="magnify" viewBox="0 0 1440 809.999993" height="1080" preserveAspectRatio="xMidYMid meet" version="1.0"><defs><clipPath id="409e58e361"><path d="M 303.296875 0 L 1126.449219 0 L 1126.449219 141.617188 L 303.296875 141.617188 Z M 303.296875 0 " clip-rule="nonzero"/></clipPath><clipPath id="fdcb245dc5"><path d="M 714.742188 141.617188 L 1126.1875 0 L 303.296875 0 Z M 714.742188 141.617188 " clip-rule="nonzero"/></clipPath><clipPath id="adc877db41"><path d="M 680 0.046875 L 1440 0.046875 L 1440 684.796875 L 680 684.796875 Z M 680 0.046875 " clip-rule="nonzero"/></clipPath><clipPath id="2488e3cc56"><path d="M 680 0.046875 L 1127 0.046875 L 1127 248 L 680 248 Z M 680 0.046875 " clip-rule="nonzero"/></clipPath><clipPath id="e3866cb68d"><path d="M 680 0.046875 L 880 0.046875 L 880 142 L 680 142 Z M 680 0.046875 " clip-rule="nonzero"/></clipPath><clipPath id="bc92d4fe00"><path d="M 1126 0.046875 L 1440 0.046875 L 1440 684.796875 L 1126 684.796875 Z M 1126 0.046875 " clip-rule="nonzero"/></clipPath><clipPath id="9bf190aea0"><path d="M 879 0.046875 L 1440 0.046875 L 1440 248 L 879 248 Z M 879 0.046875 " clip-rule="nonzero"/></clipPath></defs><g clip-path="url(#409e58e361)"><g clip-path="url(#fdcb245dc5)"><path fill="#fbab1d" d="M 303.296875 0 L 1126.449219 0 L 1126.449219 141.617188 L 303.296875 141.617188 Z M 303.296875 0 " fill-opacity="1" fill-rule="nonzero"/></g></g><g clip-path="url(#adc877db41)"><path fill="#fbab1d" d="M 1564.050781 684.792969 L 1330.125 450.84375 L 1126.3125 247.003906 L 714.261719 141.878906 L 705.199219 104.375 L 680.039062 0.0078125 L 1564.050781 0.0078125 Z M 1564.050781 684.792969 " fill-opacity="1" fill-rule="evenodd"/></g><g clip-path="url(#2488e3cc56)"><path fill="#129fa8" d="M 879.300781 0.0078125 L 1126.3125 247.003906 L 714.261719 141.878906 L 705.199219 104.375 L 680.039062 0.0078125 Z M 879.300781 0.0078125 " fill-opacity="1" fill-rule="evenodd"/></g><g clip-path="url(#e3866cb68d)"><path fill="#fbab1d" d="M 879.300781 0.0078125 L 714.261719 141.878906 L 705.199219 104.375 L 680.039062 0.0078125 Z M 879.300781 0.0078125 " fill-opacity="1" fill-rule="evenodd"/></g><g clip-path="url(#bc92d4fe00)"><path fill="#1a467b" d="M 1564.050781 684.816406 L 1564.050781 0.875 L 1126.316406 247.042969 L 1330.128906 450.875 Z M 1564.050781 684.816406 " fill-opacity="1" fill-rule="evenodd"/></g><g clip-path="url(#9bf190aea0)"><path fill="#1f6b95" d="M 1564.050781 0.875 L 1564.050781 0.0351562 L 879.308594 0.0351562 L 1126.316406 247.042969 Z M 1564.050781 0.875 " fill-opacity="1" fill-rule="evenodd"/></g></svg>